/* XPM */
static char * test_example[] = {
"20 10 6 1",
"  c None",
". c #FF8800",
"x c #8800aa",
"+ c #4400cc006600",
"# c magenta",
"= c snow",
"+  =   ...........+.",
" + =   ..........+..",
"##+####.........+...",
"#######........+....",
"   =+  .......+.....",
"   = + ......+......",
"   =  +.....+.......",
"   =   +   +xxxxxx  ",
"   =    + + xxxxxx  ",
"   =     +  xxxxxx  "
};
