<?xml version="1.0" encoding="UTF-8" standalone="no"?>
<!-- Maxima logo - Jaime E. Villate, 2014 -->

<svg
   xmlns:dc="http://purl.org/dc/elements/1.1/"
   xmlns:cc="http://creativecommons.org/ns#"
   xmlns:rdf="http://www.w3.org/1999/02/22-rdf-syntax-ns#"
   xmlns:svg="http://www.w3.org/2000/svg"
   xmlns="http://www.w3.org/2000/svg"
   xmlns:xlink="http://www.w3.org/1999/xlink"
   xmlns:sodipodi="http://sodipodi.sourceforge.net/DTD/sodipodi-0.dtd"
   xmlns:inkscape="http://www.inkscape.org/namespaces/inkscape"
   height="140"
   width="140"
   version="1.1"
   id="svg45"
   sodipodi:docname="text-x-maxima-out.svg"
   inkscape:version="0.92.1 r15371">
  <metadata
     id="metadata49">
    <rdf:RDF>
      <cc:Work
         rdf:about="">
        <dc:format>image/svg+xml</dc:format>
        <dc:type
           rdf:resource="http://purl.org/dc/dcmitype/StillImage" />
        <dc:title></dc:title>
      </cc:Work>
    </rdf:RDF>
  </metadata>
  <sodipodi:namedview
     pagecolor="#ffffff"
     bordercolor="#666666"
     borderopacity="1"
     objecttolerance="10"
     gridtolerance="10"
     guidetolerance="10"
     inkscape:pageopacity="0"
     inkscape:pageshadow="2"
     inkscape:window-width="1894"
     inkscape:window-height="1047"
     id="namedview47"
     showgrid="false"
     inkscape:zoom="1.7481481"
     inkscape:cx="-73.506358"
     inkscape:cy="67.499998"
     inkscape:window-x="26"
     inkscape:window-y="0"
     inkscape:window-maximized="1"
     inkscape:current-layer="svg45" />
  <defs
     id="defs23">
    <filter
       id="shadow"
       filterUnits="objectBoundingBox"
       width="1.4"
       height="1.4">
      <feGaussianBlur
         in="SourceAlpha"
         stdDeviation="4"
         id="feGaussianBlur2" />
      <feOffset
         dx="4"
         dy="4"
         id="feOffset4" />
      <feComponentTransfer
         result="shadow"
         id="feComponentTransfer8">
        <feFuncA
           type="linear"
           slope=".5"
           intercept="0"
           id="feFuncA6" />
      </feComponentTransfer>
    </filter>
    <filter
       id="emboss">
      <feGaussianBlur
         in="SourceAlpha"
         stdDeviation="2"
         result="blur"
         id="feGaussianBlur11" />
      <feSpecularLighting
         in="blur"
         surfaceScale="-3"
         specularConstant="1"
         specularExponent="16"
         result="spec"
         kernelUnitLength="1"
         id="feSpecularLighting15">
        <feDistantLight
           azimuth="45"
           elevation="45"
           id="feDistantLight13" />
      </feSpecularLighting>
      <feComposite
         in="spec"
         in2="SourceGraphic"
         operator="in"
         result="specOut"
         id="feComposite17" />
    </filter>
    <path
       d="m 20.04,-75.84 h 20.28 c 13.92,0 17.64,2.76 19.68,14.64 h 3.12 l -1.2,-19.56 H 2.64 L 28.8,-38.4 0.6,0 h 63.6 l 6.48,-21.6 H 67.56 C 63.72,-12 60.12,-9.96 46.2,-9.96 H 14.16 l 25.32,-34.32 z"
       id="Sigma"
       inkscape:connector-curvature="0" />
    <path
       d="m 64.704,-55.008 v 43.488 c 0,7.968 -1.152,9.216 -8.736,9.696 h 26.88 v 0 c -7.008,-0.48 -8.352,-1.824 -8.352,-8.64 v -42.624 c 0,-6.816 1.248,-8.064 8.352,-8.64 v -1.824 H 63.744 l -21.216,48.48 -22.176,-48.48 H 1.344 v 1.824 c 7.872,0.48 9.12,1.632 9.12,8.64 v 38.976 c 0,9.888 -1.344,11.712 -9.312,12.288 h 22.56 v 0 C 16.32,-2.208 14.688,-4.416 14.688,-14.112 V -52.8 L 38.784,0 h 1.344 z"
       id="M"
       inkscape:connector-curvature="0" />
    <path
       d="m 36.12,-91.68 c -1.08,-0.12 -2.04,-0.24 -2.64,-0.24 -5.4,0 -10.8,4.32 -11.64,9.24 -0.72,4.44 1.32,7.08 6.84,8.76 -3.36,2.88 -5.52,6.48 -6.24,10.44 -0.72,4.56 0.6,8.4 4.44,12.72 -4.68,3.12 -6.96,4.92 -9.48,7.32 -5.16,5.04 -9,12.36 -10.08,19.32 -1.68,9.48 1.8,18.24 8.4,21.84 3.6,1.92 8.04,2.64 15.36,2.64 2.16,0 4.8,-0.12 10.56,-0.36 4.68,-0.24 7.8,3.24 7.08,7.92 -0.72,4.56 -4.56,7.92 -9,7.92 -0.6,0 -2.88,-0.24 -5.16,-0.72 -2.76,-0.36 -3.72,-0.48 -4.8,-0.48 -3,0 -5.4,2.04 -5.88,5.04 -0.72,4.08 2.88,6.96 8.76,6.96 5.64,0 10.32,-2.4 15.12,-7.56 4.2,-4.56 6.96,-10.08 7.92,-15.6 0.96,-5.4 -0.36,-9.6 -3.72,-12.48 -2.4,-2.16 -5.04,-2.76 -10.44,-2.76 H 31.08 c -5.16,0 -9.12,-0.48 -11.16,-1.44 -4.68,-2.28 -7.32,-7.92 -6.24,-14.16 1.44,-8.52 7.8,-15.72 18.84,-21.48 3.12,1.2 5.52,1.56 9.24,1.56 9.48,0 15.6,-2.52 16.32,-6.72 0.48,-2.76 -2.4,-4.32 -7.68,-4.32 -4.68,0 -9.24,1.32 -18.24,5.04 C 27.6,-57 26.4,-59.4 27,-63.24 c 0.6,-3.72 3.48,-7.32 8.52,-10.68 6,-0.24 10.2,-0.96 13.8,-2.64 4.32,-2.04 7.56,-5.04 7.92,-7.8 0.48,-2.28 -1.32,-3.6 -4.68,-3.6 -4.44,0 -9.84,2.76 -18.6,9.6 -3.84,-0.12 -6,-2.4 -5.4,-5.52 0.36,-2.64 2.76,-4.44 7.2,-5.64 z"
       id="xi"
       inkscape:connector-curvature="0" />
    <radialGradient
       cx="-21.891562"
       cy="-35.872421"
       r="104.04594"
       fx="-21.891562"
       fy="-35.872421"
       id="radialGradient7270"
       xlink:href="#linearGradient3922-0"
       gradientUnits="userSpaceOnUse"
       gradientTransform="matrix(1,0,0,1.3123449,0,11.204569)" />
    <linearGradient
       id="linearGradient3922-0">
      <stop
         id="stop3924-1"
         style="stop-color:#6492a5;stop-opacity:0.61538464"
         offset="0" />
      <stop
         id="stop3926-8"
         style="stop-color:#69a7c1;stop-opacity:0.61538464"
         offset="1" />
    </linearGradient>
    <radialGradient
       inkscape:collect="always"
       xlink:href="#linearGradient3922-0"
       id="radialGradient847"
       cx="-266.35593"
       cy="-7.796608"
       fx="-266.35593"
       fy="-7.796608"
       r="72.5"
       gradientUnits="userSpaceOnUse" />
  </defs>
  <rect
     style="opacity:1;fill:url(#radialGradient847);fill-opacity:1;fill-rule:evenodd;stroke:#000000;stroke-width:1;stroke-linecap:round;stroke-miterlimit:4;stroke-dasharray:none;stroke-opacity:1"
     id="rect839"
     width="140"
     height="140"
     x="-336.35593"
     y="-77.796608"
     transform="matrix(0.9858156,0,0,0.9858156,332.57783,77.686018)" />
  <g
     id="g43"
     transform="translate(0,5)">
    <use
       xlink:href="#xi"
       x="1"
       y="99"
       style="filter:url(#shadow)"
       id="use25"
       width="100%"
       height="100%" />
    <use
       xlink:href="#xi"
       x="1"
       y="99"
       style="fill:#000080"
       id="use27"
       width="100%"
       height="100%" />
    <use
       xlink:href="#xi"
       x="1"
       y="99"
       style="filter:url(#emboss)"
       id="use29"
       width="100%"
       height="100%" />
    <use
       xlink:href="#Sigma"
       x="56"
       y="99"
       style="filter:url(#shadow)"
       id="use31"
       width="100%"
       height="100%" />
    <use
       xlink:href="#Sigma"
       x="56"
       y="99"
       style="fill:#000080"
       id="use33"
       width="100%"
       height="100%" />
    <use
       xlink:href="#Sigma"
       x="56"
       y="99"
       style="filter:url(#emboss)"
       id="use35"
       width="100%"
       height="100%" />
    <use
       xlink:href="#M"
       x="29"
       y="95"
       style="filter:url(#shadow)"
       id="use37"
       width="100%"
       height="100%" />
    <use
       xlink:href="#M"
       x="29"
       y="95"
       style="fill:#b40000"
       id="use39"
       width="100%"
       height="100%" />
    <use
       xlink:href="#M"
       x="29"
       y="95"
       style="filter:url(#emboss)"
       id="use41"
       width="100%"
       height="100%" />
  </g>
</svg>
